<?xml version="1.0" encoding="utf-8"?>
<!-- Generator: Adobe Illustrator 25.0.1, SVG Export Plug-In . SVG Version: 6.00 Build 0)  -->
<svg version="1.1" id="Capa_1" xmlns="http://www.w3.org/2000/svg" xmlns:xlink="http://www.w3.org/1999/xlink" x="0px" y="0px"
	 viewBox="0 0 59.3 64.5" style="enable-background:new 0 0 59.3 64.5;" xml:space="preserve">
<style type="text/css">
	.st0{fill:none;stroke:#010202;stroke-miterlimit:10;}
	.st1{fill:#010202;}
</style>
<path class="st1" d="M27.9,6.9l-2.2,10.2c-1.5,7.2-7.2,12.7-14.3,14.2l-10,2l9.8,1.9c7.3,1.4,13,7.1,14.5,14.4l2.2,10.6l2.2-10.7
	c1.5-7.3,7.2-13,14.5-14.4l9.7-1.9l-9.7-1.9c-7.3-1.4-13-7-14.5-14.2L27.9,6.9z"/>
<path class="st1" d="M40.2,42.8L39.7,45c-0.3,1.6-1.6,2.8-3.2,3.1l-2.2,0.4l2.2,0.4c1.6,0.3,2.9,1.6,3.2,3.2l0.5,2.3l0.5-2.4
	c0.3-1.6,1.6-2.9,3.2-3.2l2.2-0.4l-2.2-0.4c-1.6-0.3-2.9-1.5-3.2-3.2L40.2,42.8z"/>
<path class="st1" d="M49.1,36.9l-0.5,2.2c-0.3,1.6-1.6,2.8-3.2,3.1l-2.2,0.4l2.2,0.4c1.6,0.3,2.9,1.6,3.2,3.2l0.5,2.3l0.5-2.4
	c0.3-1.6,1.6-2.9,3.2-3.2l2.2-0.4l-2.2-0.4c-1.6-0.3-2.9-1.5-3.2-3.2L49.1,36.9z"/>
</svg>
